HIERARCHY
ROOT Hips
{
  OFFSET 13.6774 106.653 -34.4427
  CHANNELS 6 Xposition Yposition Zposition Zrotation Xrotation Yrotation
  JOINT ToSpine
  {
    OFFSET -2.69724 7.43032 -0.144315
    CHANNELS 3 Zrotation Xrotation Yrotation
    JOINT Spine
    {
      OFFSET -0.0310711 10.7595 1.96963
      CHANNELS 3 Zrotation Xrotation Yrotation
      JOINT Spine1
      {
        OFFSET 19.9056 3.91189 0.764692
        CHANNELS 3 Zrotation Xrotation Yrotation
        JOINT Neck
        {
          OFFSET 25.9749 7.03908 -0.130764
          CHANNELS 3 Zrotation Xrotation Yrotation
          JOINT Head
          {
            OFFSET 9.52751 0.295786 -0.907742
            CHANNELS 3 Zrotation Xrotation Yrotation
            End Site
            {
              OFFSET 16.4037 0.713936 2.7358
            }
          }
        }
        JOINT LeftShoulder
        {
          OFFSET 17.7449 4.33886 11.7777
          CHANNELS 3 Zrotation Xrotation Yrotation
          JOINT LeftArm
          {
            OFFSET 0.911315 1.27913 9.80584
            CHANNELS 3 Zrotation Xrotation Yrotation
            JOINT LeftForeArm
            {
              OFFSET 28.6126 1.18197 -3.53199
              CHANNELS 3 Zrotation Xrotation Yrotation
              JOINT LeftHand
              {
                OFFSET 27.5088 0.0218783 0.327423
                CHANNELS 3 Zrotation Xrotation Yrotation
                End Site
                {
                  OFFSET 18.6038 -0.000155887 0.382096
                }
              }
            }
          }
        }
        JOINT RightShoulder
        {
          OFFSET 17.1009 2.89543 -12.2328
          CHANNELS 3 Zrotation Xrotation Yrotation
          JOINT RightArm
          {
            OFFSET 1.4228 0.178766 -10.211
            CHANNELS 3 Zrotation Xrotation Yrotation
            JOINT RightForeArm
            {
              OFFSET 28.733 1.87905 2.64907
              CHANNELS 3 Zrotation Xrotation Yrotation
              JOINT RightHand
              {
                OFFSET 27.4588 0.290562 -0.101845
                CHANNELS 3 Zrotation Xrotation Yrotation
                End Site
                {
                  OFFSET 17.8396 -0.255518 -0.000602873
                }
              }
            }
          }
        }
      }
    }
  }
  JOINT LeftUpLeg
  {
    OFFSET -5.61296 -2.22332 -10.2353
    CHANNELS 3 Zrotation Xrotation Yrotation
    JOINT LeftLeg
    {
      OFFSET 2.56703 -44.7417 -7.93097
      CHANNELS 3 Zrotation Xrotation Yrotation
      JOINT LeftFoot
      {
        OFFSET 3.16933 -46.5642 -3.96578
        CHANNELS 3 Zrotation Xrotation Yrotation
        JOINT LeftToeBase
        {
          OFFSET 0.346054 -6.02161 12.8035
          CHANNELS 3 Zrotation Xrotation Yrotation
          End Site
          {
            OFFSET 0.134235 -1.35082 5.13018
          }
        }
      }
    }
  }
  JOINT RightUpLeg
  {
    OFFSET -5.7928 -1.72406 10.6446
    CHANNELS 3 Zrotation Xrotation Yrotation
    JOINT RightLeg
    {
      OFFSET -2.57161 -44.7178 -7.85259
      CHANNELS 3 Zrotation Xrotation Yrotation
      JOINT RightFoot
      {
        OFFSET -3.10148 -46.5936 -4.03391
        CHANNELS 3 Zrotation Xrotation Yrotation
        JOINT RightToeBase
        {
          OFFSET -0.0828122 -6.13587 12.8035
          CHANNELS 3 Zrotation Xrotation Yrotation
          End Site
          {
            OFFSET -0.131328 -1.35082 5.13018
          }
        }
      }
    }
  }
}
MOTION
Frames: 21
Frame Time: 0.03333333333333333
0.0000 93.1000 0.0000 -71.2636 -31.7217 -165.8186 -71.1334 0.0298 88.0500 94.9896 71.8430 -7.2466 -2.3850 21.8900 2.8286 -150.6287 0.0016 -166.1517 -152.4565 37.7699 -169.1525 0.7614 -10.1334 -14.5549 -107.5070 12.9018 -91.2715 -2.7916 -0.5286 -79.8495 -0.3444 0.0410 0.3597 -0.2214 4.9655 14.6292 -55.2335 -24.6776 167.9420 6.7683 2.5339 109.7091 -0.2644 0.1927 -0.0258 -42.8766 22.1422 104.0023 -4.6005 53.0295 -3.5598 -3.0953 -10.7642 -1.8009 1.3029 -8.2463 12.7707 -49.7773 -20.8586 87.8282 0.5464 36.0850 -4.6452 -4.7257 -3.0627 0.1849 0.7769 -7.2103 -8.1217 
0.0000 93.1000 0.0000 -70.9436 -31.7571 -166.4004 -71.1435 0.0468 88.0546 93.9364 72.1253 -6.0094 -1.9317 22.0079 1.9564 -149.5252 0.4957 -166.7352 -151.8346 37.8532 -170.2869 0.7430 -9.7715 -15.3224 -112.0568 12.0254 -91.2573 0.1122 -0.1260 -73.9057 -0.0693 0.0661 0.1010 -0.1391 4.7279 14.3232 -56.4138 -24.7541 168.7384 6.6813 2.4161 109.2227 -0.1364 0.3118 0.0235 -43.0258 22.1442 104.3042 -4.1201 50.6666 -3.2051 -3.0442 -9.3258 -1.7765 1.2433 -7.9139 12.7831 -48.9419 -22.0692 86.6522 -0.9084 34.0597 0.8856 -3.4053 1.4025 -0.2169 0.9985 -7.8911 -8.8310 
0.0000 93.1000 0.0000 -70.7078 -31.3365 -166.7103 -71.1452 0.1234 88.0500 94.0463 71.9498 -7.1394 -1.7553 22.3768 0.5838 -148.1402 0.3697 -170.2434 -149.7350 37.8041 -172.1483 0.3250 -10.0965 -15.7766 -116.0545 11.0884 -90.9898 1.7633 0.0655 -68.6110 0.2240 0.4703 0.1674 -0.1639 4.3848 14.4948 -57.1545 -25.4429 169.9548 6.7331 2.3052 107.8741 -0.2610 0.7438 -0.3640 -43.5133 22.8541 104.8334 -2.9199 48.2924 -3.9154 -3.5557 -7.2321 -1.8983 1.6156 -7.1754 11.3171 -47.4669 -21.7135 88.4604 -0.9127 33.7264 8.5901 -2.3265 5.1160 -0.2697 2.5887 -14.5594 -12.0308 
0.0000 93.1000 0.0000 -70.5565 -31.4468 -168.3989 -71.1408 0.0743 88.0591 93.2232 71.9231 -6.3961 -2.0969 22.4372 -0.4718 -146.0631 0.3991 -172.2728 -147.6511 37.6429 -172.1683 0.5314 -10.1762 -16.5710 -119.7584 9.7999 -89.8198 3.1030 0.8462 -64.7096 0.2967 0.2474 0.5677 -0.2467 4.3509 14.0711 -58.4289 -25.8020 170.7017 6.2366 2.4041 107.3019 -0.1139 0.5405 -0.2329 -43.9124 23.0052 103.2971 -2.1873 46.5334 -2.1374 -3.7885 -4.2444 -1.4193 1.3265 -7.1406 8.4183 -47.6380 -20.2466 91.8328 0.3370 35.5103 3.3336 -1.1588 4.1680 -0.3329 2.2817 -17.6222 -10.1241 
0.0000 93.1000 0.0000 -69.4900 -32.6785 -168.9579 -71.1393 0.0490 88.0672 91.9298 71.1764 -4.9375 -1.2184 21.8240 -0.5120 -147.8128 0.5454 -171.1650 -150.4898 37.5852 -171.9801 0.6443 -10.3658 -17.6401 -122.5907 8.1680 -88.9518 4.2941 1.7987 -62.7061 0.3111 0.1575 0.9329 -0.1581 4.6191 12.2024 -58.3856 -27.5312 172.6017 5.9830 2.4652 106.7511 -0.0876 0.4270 -0.1957 -43.9827 23.9503 101.8030 -2.7373 44.6302 -0.6702 -3.9082 -1.3980 -1.0047 1.3604 -6.8100 5.9633 -47.8134 -19.0582 92.0898 0.8553 37.2827 0.7362 -1.7756 2.9774 -0.3314 2.1359 -20.5963 -8.7106 
0.0000 93.1000 0.0000 -69.6659 -33.6931 -167.7682 -71.1365 0.0406 88.0822 89.4613 71.2198 -2.7226 -0.3989 21.5360 -0.6929 -147.9690 0.7540 -169.7747 -150.1113 37.7169 -171.0780 0.6918 -10.2660 -19.0403 -124.4886 7.2673 -87.8405 4.9974 2.2834 -61.4893 -0.0100 0.1561 1.1349 -0.0495 4.8057 10.7570 -58.4544 -28.5546 174.2469 5.6119 2.3747 106.3257 -0.4141 0.4299 -0.1817 -44.2772 24.2380 99.9630 -1.8959 41.4095 0.0368 -3.3885 1.0028 -0.8019 0.8697 -4.5488 2.6529 -48.6021 -18.0282 89.3576 0.5119 38.6791 0.7697 -1.0872 0.3814 -0.3721 2.4652 -20.2463 -8.2900 
0.0000 93.1000 0.0000 -70.1300 -34.6544 -167.1002 -71.1424 0.0057 88.1032 89.6411 70.9265 -2.8208 0.1545 20.9974 -1.2892 -147.9526 0.8963 -169.6086 -150.4087 38.0770 -171.4575 0.8777 -10.2961 -20.9765 -126.2911 6.3434 -86.8361 5.6213 2.4353 -60.8309 -0.4535 -0.0270 1.0876 0.1011 4.7456 10.5935 -58.9383 -29.1486 174.0488 6.7157 1.9280 105.9395 -0.4322 0.2337 -0.0053 -44.2502 25.4599 97.6508 -1.9962 39.0834 2.6392 -3.3065 3.8913 -0.4137 0.6247 -3.5487 2.1945 -49.0828 -16.7097 86.8486 0.2871 40.3185 -1.8136 -3.3271 -2.6171 -0.1170 2.2427 -19.1450 -6.2760 
0.0000 93.1000 0.0000 -70.4654 -35.8473 -166.5922 -71.1479 0.0118 88.1100 90.4189 70.7772 -4.0770 0.2220 20.4324 -1.2330 -147.7271 1.1273 -169.7220 -150.2142 38.3659 -170.9923 0.8488 -10.5019 -21.8046 -127.7787 6.3822 -85.9866 4.3641 2.5199 -60.6684 -0.7154 0.0527 1.2117 0.1329 4.7686 10.6059 -58.3202 -29.8752 174.9927 8.0357 2.0497 105.6376 -0.3758 0.2406 -0.1244 -43.0554 26.2204 95.9614 -1.0983 37.7586 4.3094 -3.6573 6.0925 -0.2288 -0.6162 -0.6742 2.8916 -49.1932 -14.7276 85.1754 0.8705 40.8131 -2.9420 -4.4165 -4.8835 0.0943 2.3329 -19.4871 -7.0277 
0.0000 93.1000 0.0000 -70.3237 -36.8832 -166.5876 -71.1413 0.0114 88.0957 93.2043 70.5268 -6.7718 0.0413 20.2815 -1.1986 -147.8739 1.0725 -171.2043 -149.0967 37.9391 -172.9925 0.8082 -10.8002 -22.2852 -128.1703 7.2896 -84.6103 4.9161 2.1122 -60.8197 -0.6433 0.0506 1.3323 0.0462 5.0712 12.0938 -58.0335 -29.4419 173.8457 7.6293 2.1720 106.1058 -0.4873 0.2016 -0.3285 -41.4502 26.8714 95.9199 -1.1869 38.9019 7.6588 -5.1849 4.9821 -0.0535 -1.7680 1.6967 2.7763 -49.1017 -13.5803 83.8671 0.4810 43.1085 -1.9682 -3.4618 -6.5246 0.0689 2.3483 -18.9240 -7.6637 
0.0000 93.1000 0.0000 -70.2930 -38.5221 -166.2383 -71.1376 -0.0215 88.0760 95.6360 70.2451 -9.1338 -0.6162 20.2519 -1.6008 -146.9390 1.0835 -173.6757 -147.9728 37.9038 -172.8313 0.9528 -10.9087 -22.7312 -129.6269 8.2910 -83.6327 6.3895 2.9776 -61.7135 -0.7528 -0.1764 1.2043 -0.0477 4.7501 12.8300 -57.6547 -29.0575 172.4526 7.1096 2.0613 105.7768 -0.1987 0.0102 -0.1310 -39.7872 26.8683 97.0032 -2.0568 41.7797 5.7203 -6.1620 0.3304 -0.1281 -1.7780 1.3172 3.1047 -48.8940 -13.8799 80.5327 1.7541 46.1800 -2.4417 -4.9988 -8.5850 0.3059 2.0748 -17.2899 -7.2125 
0.0000 93.1000 0.0000 -70.2020 -40.5965 -166.3903 -71.1376 -0.0675 88.0627 95.2457 69.4284 -9.7621 -0.3672 19.6681 -2.0833 -147.0868 1.3553 -172.4693 -148.9813 38.1456 -173.1339 1.0282 -11.0955 -23.9174 -131.2767 8.8426 -82.3140 6.8103 3.2255 -63.0083 -1.1003 -0.3902 1.4707 -0.0720 4.9745 12.6518 -57.3364 -28.8555 172.1040 7.9684 1.7739 105.5996 -0.0555 -0.2804 -0.4547 -38.6928 25.9599 99.1432 -2.2610 44.8970 -0.5096 -5.6579 -4.4005 -0.4586 -0.9613 -1.9628 6.9176 -48.0854 -14.2316 79.5841 1.2095 48.0566 -1.5479 -5.6711 -10.4410 0.3251 1.9208 -17.4931 -9.7353 
0.0000 93.1000 0.0000 -70.1784 -41.6336 -166.2790 -71.1245 -0.0380 88.0512 95.0212 69.4047 -10.2204 -0.2776 19.4562 -1.9617 -146.6681 1.1591 -172.3991 -149.1729 37.7461 -173.8257 0.7577 -11.6769 -25.0765 -129.1357 8.3977 -80.4475 5.6213 2.7955 -64.7084 -1.3245 -0.1962 1.1572 -0.1974 4.5100 13.3642 -57.2729 -28.8950 170.4611 7.7386 1.8388 105.7142 -0.0552 -0.0598 -0.4548 -37.6073 25.0561 100.6296 -3.5168 48.5490 -3.0118 -5.8400 -7.1554 -0.8597 0.2582 -5.1636 8.9187 -47.7110 -13.9937 79.0225 0.7761 49.9812 -1.3855 -5.6717 -12.1206 0.4894 2.2157 -18.1957 -14.1227 
0.0000 93.1000 0.0000 -70.7279 -42.6813 -165.9091 -71.1277 0.0080 88.0456 94.9521 69.2500 -8.8758 -0.0769 19.2888 -1.8848 -144.6670 1.0750 -175.1742 -146.4220 37.6340 -175.2169 0.4158 -12.0328 -25.9338 -128.0563 8.2124 -78.6872 4.2881 2.4432 -66.8881 -1.3347 0.0730 1.0902 -0.4439 4.5299 15.0990 -56.3919 -28.1047 168.7461 7.4307 2.1526 106.1381 -0.0672 0.2615 -0.3619 -37.7138 24.4345 100.2931 -4.5964 49.8046 -1.8211 -5.3996 -7.4591 -1.2657 0.6345 -6.3177 9.1999 -47.9580 -13.7269 78.4740 2.2561 50.7067 -0.9227 -4.9078 -13.3024 0.5949 2.4003 -18.9392 -17.1448 
0.0000 93.1000 0.0000 -71.1085 -42.8818 -167.8434 -71.1314 0.0789 88.0395 93.1468 69.4155 -7.3095 0.5097 19.4532 -2.2443 -144.5263 0.8215 -174.0970 -146.6929 37.4408 -176.2352 -0.0712 -12.1278 -25.6827 -127.8129 8.1806 -76.3950 7.2359 2.8371 -68.0463 -1.0321 0.4336 0.7720 -0.5497 4.8421 16.1662 -55.1355 -27.4111 167.9853 7.3712 2.4718 106.6982 -0.4073 0.6996 -0.4309 -38.9172 24.0449 100.0491 -2.9890 47.6369 -2.9834 -6.0175 -7.1219 -1.3175 0.1961 -6.0789 9.9880 -48.8457 -13.2148 78.6837 2.4882 51.1446 -1.9890 -5.2751 -15.0748 0.8706 2.3521 -17.3831 -18.1577 
0.0000 93.1000 0.0000 -72.2831 -42.6534 -168.0117 -71.1343 -0.0163 88.0507 93.1786 69.7701 -6.2551 0.8876 20.1123 -3.3860 -143.9990 0.4506 -176.6128 -144.6430 37.0002 -178.0360 0.4035 -11.9867 -25.8995 -126.3790 8.1153 -75.2364 7.1453 2.7578 -68.7390 -0.9296 -0.0527 1.0546 -0.7034 5.1675 17.7855 -54.3424 -26.9617 166.5757 7.5357 2.2783 107.0693 -0.0674 0.1964 -0.0398 -40.2729 24.1107 100.5839 -3.4078 45.8577 -1.8431 -7.0875 -6.1444 -0.6101 0.7436 -5.5837 7.9120 -48.8049 -13.2314 78.7019 2.6684 52.5491 -1.4117 -5.3120 -16.9338 0.6704 1.8070 -15.8104 -18.3748 
0.0000 93.1000 0.0000 -72.8006 -42.7051 -169.0819 -71.1367 0.0047 88.0505 94.8613 69.6682 -6.6377 0.3514 20.2361 -3.5219 -144.4635 0.7229 -175.1107 -146.6926 37.3258 -176.4172 0.2112 -12.1125 -26.1922 -125.6737 8.1003 -72.9077 7.6651 2.5695 -69.6891 -0.8317 0.0524 0.7913 -0.6668 5.3309 17.6533 -52.4726 -26.9003 167.0555 7.6850 2.3139 106.5844 -0.1284 0.3192 -0.3181 -41.3921 24.5426 101.1807 -2.8901 44.9054 -1.9471 -7.0217 -5.3799 -0.6158 0.9371 -5.7518 5.6277 -47.9265 -13.1079 79.7143 2.9353 53.9213 -2.0302 -4.8778 -17.8213 0.7064 1.9558 -15.2282 -19.7612 
0.0000 93.1000 0.0000 -72.9475 -42.8342 -170.3500 -71.1279 0.0017 88.0530 92.0689 69.9448 -5.2431 0.7571 19.9499 -3.7105 -145.5953 0.8466 -174.0293 -147.5370 37.5544 -176.2318 0.2301 -11.8936 -27.1798 -126.0889 8.1579 -73.4543 7.6632 2.9700 -71.0534 -1.0670 0.0309 0.6796 -0.6500 5.2809 17.2234 -52.0534 -26.2630 167.4156 7.8488 2.1392 106.5724 -0.1109 0.3161 -0.1550 -41.9115 25.0978 102.6964 -3.4156 44.4979 -1.8210 -7.1151 -4.6150 -0.4835 1.0540 -5.5622 5.0062 -47.8705 -12.4656 80.7707 3.0514 55.1356 0.0747 -4.7378 -18.9858 0.7438 1.9234 -15.1586 -23.3861 
0.0000 93.1000 0.0000 -73.1352 -42.9332 -169.8271 -71.1211 -0.0119 88.0582 90.7077 69.8957 -3.8151 1.2466 20.1529 -3.1470 -145.6465 0.8531 -172.7794 -147.9459 37.4594 -175.2578 0.2072 -12.0903 -27.6109 -125.7338 7.1830 -71.6980 8.0556 2.2036 -71.1313 -1.0581 -0.0279 0.6786 -0.7063 5.8691 16.7905 -50.9387 -26.2308 167.9220 7.8443 2.3940 106.4174 0.0238 0.2726 -0.1928 -42.8719 25.1136 102.6235 -2.5210 43.5733 -3.3623 -7.4602 -3.9234 -0.2386 0.7888 -5.7581 5.6152 -47.5264 -12.8686 80.4186 4.0788 56.3966 -0.1240 -5.0051 -19.6875 0.8939 1.9844 -15.6596 -23.9473 
0.0000 93.1000 0.0000 -73.0644 -43.5835 -170.9907 -71.1147 -0.0268 88.0494 90.7952 69.3316 -3.8389 1.3385 19.7646 -3.0587 -144.5269 1.2371 -173.1206 -147.8565 37.6334 -175.0992 0.2266 -12.0815 -27.9022 -124.9169 6.9713 -71.4861 8.7599 2.5140 -71.1228 -1.0245 -0.0768 0.8615 -0.7243 5.8525 16.9109 -50.7964 -26.7927 168.3175 7.8776 3.1034 107.2604 0.0091 0.2095 -0.1052 -43.0306 24.9746 102.7870 -2.5210 43.5912 -3.4476 -7.1729 -3.3504 -0.1613 0.7998 -5.8456 5.9499 -47.6690 -12.8380 79.9284 4.1159 57.0626 -0.2799 -5.6531 -20.5237 1.0126 1.8417 -15.0010 -24.0666 
0.0000 93.1000 0.0000 -72.9733 -43.6775 -171.2842 -71.1038 -0.0444 88.0526 89.8656 69.1706 -3.0627 1.8358 19.6015 -2.8002 -144.6237 1.7506 -171.7852 -147.2706 37.7317 -174.9942 0.3010 -11.9282 -28.6232 -125.1058 7.0602 -71.7279 8.7140 2.4772 -70.8816 -0.7872 -0.1202 1.1621 -0.6661 5.8132 16.2178 -50.2980 -26.4008 168.2023 7.8219 2.9531 107.5452 -0.1180 0.1107 -0.0597 -43.0405 24.0964 102.4057 -2.9752 43.5399 -3.7614 -7.1504 -2.8668 0.0349 1.0704 -6.8233 6.8630 -47.5101 -13.5224 79.8385 3.8342 57.1654 0.6116 -6.3816 -20.3684 1.0214 2.0586 -16.9304 -25.6823 
0.0000 93.1000 0.0000 -73.0247 -43.6295 -171.0022 -71.0948 -0.0406 88.0562 89.0684 69.0846 -2.4503 2.0491 19.7568 -3.0542 -144.8205 1.7575 -172.0618 -147.4041 37.6614 -174.3266 0.2238 -12.1145 -28.7567 -124.8202 7.2622 -71.6509 8.7245 2.2743 -70.1296 -1.2706 -0.0938 1.0552 -0.7073 5.8503 16.4004 -50.4484 -26.5494 167.5410 8.2889 2.8958 107.4477 -0.0018 0.1474 -0.0147 -42.8393 24.1595 102.0773 -3.1064 42.7721 -2.9111 -7.0128 -2.6213 0.0434 0.8639 -5.9724 5.8571 -46.6867 -13.8792 79.7375 4.2176 58.4890 -0.3065 -5.9329 -21.1200 1.0045 1.8991 -16.2273 -23.6368 
